<?xml version="1.0" encoding="UTF-8"?>
<svg width="175px" height="180px" viewBox="0 0 175 180" version="1.1" xmlns="http://www.w3.org/2000/svg" xmlns:xlink="http://www.w3.org/1999/xlink">
    <!-- Generator: Sketch 51.2 (57519) - http://www.bohemiancoding.com/sketch -->
    <title>Group</title>
    <desc>Created with Sketch.</desc>
    <defs>
        <linearGradient x1="50%" y1="0%" x2="50%" y2="100%" id="linearGradient-1">
            <stop stop-color="#FFFFFF" offset="0%"></stop>
            <stop stop-color="#FFFFFF" offset="100%"></stop>
        </linearGradient>
        <circle id="path-2" cx="83" cy="83" r="83"></circle>
        <filter x="-7.5%" y="-5.1%" width="115.1%" height="115.1%" filterUnits="objectBoundingBox" id="filter-3">
            <feMorphology radius="0.5" operator="dilate" in="SourceAlpha" result="shadowSpreadOuter1"></feMorphology>
            <feOffset dx="0" dy="4" in="shadowSpreadOuter1" result="shadowOffsetOuter1"></feOffset>
            <feGaussianBlur stdDeviation="3" in="shadowOffsetOuter1" result="shadowBlurOuter1"></feGaussianBlur>
            <feColorMatrix values="0 0 0 0 0   0 0 0 0 0   0 0 0 0 0  0 0 0 0.5 0" type="matrix" in="shadowBlurOuter1"></feColorMatrix>
        </filter>
        <polygon id="path-4" points="0 0.0356578443 22.5338813 0.0356578443 22.5338813 55.7637131 0 55.7637131"></polygon>
        <polygon id="path-6" points="0.0657675331 0.162478156 7.211405 0.162478156 7.211405 14.983757 0.0657675331 14.983757"></polygon>
    </defs>
    <g id="Page-1" stroke="none" stroke-width="1" fill="none" fill-rule="evenodd">
        <g id="Artboard-2" transform="translate(0.000000, -11.000000)">
            <g id="Group" transform="translate(5.000000, 14.000000)">
                <g id="Oval">
                    <use fill="black" fill-opacity="1" filter="url(#filter-3)" xlink:href="#path-2"></use>
                    <use fill="url(#linearGradient-1)" fill-rule="evenodd" xlink:href="#path-2"></use>
                </g>
                <g id="Group-17" transform="translate(14.000000, 55.000000)">
                    <g id="Group-3">
                        <mask id="mask-5" fill="white">
                            <use xlink:href="#path-4"></use>
                        </mask>
                        <g id="Clip-2"></g>
                        <path d="M8.170901,50.8077453 C5.73436943,50.3862954 3.55980315,49.0136832 2.1100923,46.9863414 C0.628589539,44.7231423 -0.106439297,42.0436486 0.0118265885,39.3306452 L0.0118265885,36.1356164 L7.14084329,36.1356164 L7.14084329,39.8139593 C7.14084329,42.6429582 8.42777959,44.0516578 11.0016522,44.0516578 C13.5755248,44.0516578 14.8624611,42.5914047 14.8624611,39.6824979 C14.8866229,37.9490111 14.4122877,36.2451676 13.4979525,34.7784703 C12.1194556,32.8155704 10.4382996,31.0885278 8.5180686,29.6669398 C5.98743299,27.7762148 3.80905168,25.4434185 2.08465877,22.7806797 C0.8282427,20.5832114 0.183502874,18.0815773 0.219109807,15.5425669 C0.109745655,12.9120491 0.815525938,10.3111745 2.23853159,8.10855082 C3.66280892,6.11085232 5.7839648,4.7408178 8.170901,4.27425853 L8.170901,0.0352711929 L14.3474322,0.0352711929 L14.3474322,4.27425853 C16.7763338,4.68797545 18.9483567,6.05027695 20.3955242,8.06988569 C21.8287032,10.3369513 22.5344835,12.9958236 22.4162176,15.6856279 L22.4162176,17.0685508 L15.3126345,17.0685508 L15.3126345,15.1894254 C15.3126345,12.3217614 14.0562184,10.8859962 11.5421146,10.8859962 C9.02928243,10.8859962 7.76777965,12.2766521 7.75887792,15.0605416 C7.75379121,16.7038097 8.23321313,18.3109904 9.13610322,19.6771584 C10.5858141,21.634903 12.3216521,23.3593679 14.2838484,24.7899778 C16.8170274,26.7167902 18.9954087,29.0843851 20.7172583,31.7793448 C21.9545992,34.0335221 22.5764488,36.5828431 22.5192234,39.1618074 C22.6489344,41.9276532 21.9151772,44.6664334 20.4209577,46.9863414 C18.9877786,49.054926 16.803039,50.4610479 14.3474322,50.8992528 L14.3474322,55.7646153 L8.170901,55.7646153 L8.170901,50.8077453 Z" id="Fill-1" fill="#067D51" mask="url(#mask-5)"></path>
                    </g>
                    <polygon id="Fill-4" fill="#0A8053" points="108.144381 3.78059072 111.443976 3.78059072 112.907053 14.4309073 114.421286 3.78059072 117.720881 3.78059072 117.720881 18.6666667 115.53394 18.6666667 115.53394 7.40068738 113.772877 18.6666667 111.885201 18.6666667 110.202152 7.40068738 110.202152 18.6666667 108.144381 18.6666667"></polygon>
                    <polygon id="Fill-6" fill="#0A8053" points="121.371865 11.059668 118.797622 3.78059072 121.216698 3.78059072 122.762007 8.58016749 124.35819 3.78059072 126.519079 3.78059072 123.944836 11.059668 126.596662 18.6666667 124.255169 18.6666667 122.581403 13.4199244 120.869481 18.6666667 118.655174 18.6666667"></polygon>
                    <g id="Group-10" transform="translate(127.764528, 3.780591)">
                        <mask id="mask-7" fill="white">
                            <use xlink:href="#path-6"></use>
                        </mask>
                        <g id="Clip-9"></g>
                        <polygon id="Fill-8" fill="#0A8053" mask="url(#mask-7)" points="0.0657675331 0.162478156 2.94025252 0.162478156 5.17187739 9.04234054 5.17187739 0.162478156 7.21203899 0.162478156 7.21203899 14.983757 4.863761 14.983757 2.11860882 4.159126 2.11860882 14.983757 0.0657675331 14.983757"></polygon>
                    </g>
                    <path d="M39.6289234,35.336419 L39.6289234,16.1685928 L39.4885795,16.1685928 L31.9623186,35.336419 L39.6289234,35.336419 Z M39.6289234,42.3580669 L24.9923299,42.3580669 L24.9923299,35.336419 L38.9323073,2.12658228 L47.2942523,2.12658228 L47.2942523,35.336419 L50.9189526,35.336419 L50.9189526,42.3580669 L47.2942523,42.3580669 L47.2942523,51.2742616 L39.6289234,51.2742616 L39.6289234,42.3580669 Z" id="Fill-11" fill="#0A8053"></path>
                    <path d="M97.5079275,21.5072007 L97.5079275,12.7995792 C97.5079275,9.61634122 96.1923646,8.0234366 93.562506,8.0234366 C90.93138,8.0234366 89.6145496,9.61634122 89.6145496,12.7995792 L89.6145496,21.5072007 C89.6145496,24.7380072 90.93138,26.3540533 93.562506,26.3540533 C96.1923646,26.3540533 97.5079275,24.7380072 97.5079275,21.5072007 M85.0468338,48.3705921 C83.1089765,46.2390055 82.1381468,43.1856169 82.1381468,39.2052838 L82.1381468,38.2924813 L89.3395234,38.2924813 L89.3395234,39.6963972 C89.3395234,42.9272038 90.653819,44.5419642 93.284945,44.5419642 C94.7158415,44.5419642 95.7779242,44.0971337 96.4711929,43.2087584 C97.1619269,42.3190973 97.5079275,40.7506198 97.5079275,38.5033258 L97.5079275,29.0924608 L97.3697808,29.0924608 C96.0301371,31.9478612 93.723466,33.3762043 90.4459651,33.3762043 C87.6766923,33.3762043 85.5766077,32.4171188 84.1457111,30.4963767 C82.7148146,28.5782058 82,25.7922298 82,22.1384486 L82,13.3601171 C82,9.42735253 82.9911082,6.38553467 84.9758593,4.23080655 C86.9606104,2.0786497 89.8236709,1 93.562506,1 C97.3013411,1 100.161867,2.0786497 102.146618,4.23080655 C104.130102,6.38553467 105.123745,9.42735253 105.123745,13.3601171 L105.123745,38.7835948 C105.123745,47.3047988 101.246763,51.5654008 93.4927989,51.5654008 C89.7995902,51.5654008 86.9834236,50.5008932 85.0468338,48.3705921" id="Fill-15" fill="#067D51"></path>
                    <path d="M69.5079275,21.5072007 L69.5079275,12.7995792 C69.5079275,9.61634122 68.1923646,8.0234366 65.562506,8.0234366 C62.93138,8.0234366 61.6145496,9.61634122 61.6145496,12.7995792 L61.6145496,21.5072007 C61.6145496,24.7380072 62.93138,26.3540533 65.562506,26.3540533 C68.1923646,26.3540533 69.5079275,24.7380072 69.5079275,21.5072007 M57.0468338,48.3705921 C55.1089765,46.2390055 54.1381468,43.1856169 54.1381468,39.2052838 L54.1381468,38.2924813 L61.3395234,38.2924813 L61.3395234,39.6963972 C61.3395234,42.9272038 62.653819,44.5419642 65.284945,44.5419642 C66.7158415,44.5419642 67.7779242,44.0971337 68.4711929,43.2087584 C69.1619269,42.3190973 69.5079275,40.7506198 69.5079275,38.5033258 L69.5079275,29.0924608 L69.3697808,29.0924608 C68.0301371,31.9478612 65.723466,33.3762043 62.4459651,33.3762043 C59.6766923,33.3762043 57.5766077,32.4171188 56.1457111,30.4963767 C54.7148146,28.5782058 54,25.7922298 54,22.1384486 L54,13.3601171 C54,9.42735253 54.9911082,6.38553467 56.9758593,4.23080655 C58.9606104,2.0786497 61.8236709,1 65.562506,1 C69.3013411,1 72.1618668,2.0786497 74.1466179,4.23080655 C76.1301016,6.38553467 77.1237445,9.42735253 77.1237445,13.3601171 L77.1237445,38.7835948 C77.1237445,47.3047988 73.2467626,51.5654008 65.4927989,51.5654008 C61.7995902,51.5654008 58.9834236,50.5008932 57.0468338,48.3705921" id="Fill-15-Copy" fill="#067D51"></path>
                </g>
            </g>
        </g>
    </g>
</svg>